<?xml version="1.0" encoding="UTF-8" standalone="no"?>
<!-- Created with Inkscape (http://www.inkscape.org/) -->

<svg
   width="72mm"
   height="10.5mm"
   viewBox="0 0 72 10.5"
   version="1.1"
   id="svg1"
   xml:space="preserve"
   xmlns="http://www.w3.org/2000/svg"
   xmlns:svg="http://www.w3.org/2000/svg"><defs
     id="defs1" /><g
     id="g1"><g
       id="g9"
       transform="matrix(0.01709723,0,0,0.01709723,-3.54853,-3.664962)"><rect
         x="530.03998"
         y="289.42001"
         width="186.94"
         height="185.49001"
         rx="8.3000002"
         ry="8.3000002"
         id="rect1" /><path
         d="M 708.68,489.79 H 538.34 c -12.84,0 -23.29,-10.37 -23.29,-23.11 V 297.65 c 0,-12.74 10.45,-23.11 23.29,-23.11 h 170.34 c 12.84,0 23.29,10.37 23.29,23.11 v 169.03 c 0,12.74 -10.45,23.11 -23.29,23.11 z M 545.03,460.04 H 701.99 V 304.29 H 545.03 Z"
         id="path1" /><polygon
         points="278.32,539.13 291.74,460.4 368.49,459.79 383.15,538.3 "
         id="polygon1" /><polygon
         points="468.09,621.92 546.82,635.33 547.43,712.08 468.92,726.74 "
         id="polygon2" /><polygon
         points="390.48,540.89 455.64,494.71 510.34,548.55 465.19,614.43 "
         id="polygon3" /><path
         d="m 459.81,543.2 c -35.03,-34.48 -81.34,-53.25 -130.53,-52.86 -21.35,0.17 -42.12,3.95 -61.62,11.04 v 103.25 c 17.11,-15.52 39.04,-24.12 62.33,-24.3 0.26,0 0.51,0 0.76,0 24.82,0 48.21,9.58 65.92,27.01 36.08,35.51 37.35,93.22 3.51,130.31 h 103.3 C 527.44,671.97 512.79,595.36 459.8,543.2 Z"
         id="path3" /><path
         d="M 705.44,799.25 H 294.55 c -47.97,0 -87,-39.03 -87,-87 V 301.36 c 0,-47.97 39.03,-87 87,-87 h 410.89 c 47.97,0 87,39.03 87,87 v 410.89 c 0,47.97 -39.03,87 -87,87 z M 294.55,244.36 c -31.43,0 -57,25.57 -57,57 v 410.89 c 0,31.43 25.57,57 57,57 h 410.89 c 31.43,0 57,-25.57 57,-57 V 301.36 c 0,-31.43 -25.57,-57 -57,-57 z"
         id="path4" /><rect
         x="472.17001"
         y="274.54999"
         width="112.32"
         height="30"
         id="rect4" /><rect
         x="472.17001"
         y="333.54999"
         width="111.32"
         height="30"
         id="rect5" /><rect
         x="472.17001"
         y="393.01999"
         width="111.32"
         height="30"
         id="rect6" /><rect
         x="661.37"
         y="462.62"
         width="111.18"
         height="30"
         transform="rotate(90,716.965,477.615)"
         id="rect7" /><rect
         x="602.38"
         y="462.60999"
         width="111.18"
         height="30"
         transform="rotate(90,657.97,477.61)"
         id="rect8" /><rect
         x="542.90002"
         y="462.60999"
         width="111.18"
         height="30"
         transform="rotate(90,598.495,477.615)"
         id="rect9" /></g><path
       d="m 13.388681,5.166418 q -0.629405,0 -0.99446,-0.3524668 Q 12.029166,4.4614844 12.029166,3.8446674 V 1.7676309 q 0,-0.616817 0.365055,-0.96928377 0.365055,-0.35246681 0.99446,-0.35246681 0.616817,0 0.981872,0.35876086 0.365055,0.35246682 0.365055,0.96298972 h -0.566465 q 0,-0.3902312 -0.207704,-0.5979348 -0.201409,-0.21399771 -0.572758,-0.21399771 -0.371349,0 -0.585347,0.21399771 -0.207704,0.2077036 -0.207704,0.5979348 v 2.0770365 q 0,0.3902311 0.207704,0.6042289 0.213998,0.2077036 0.585347,0.2077036 0.371349,0 0.572758,-0.2077036 0.207704,-0.2139978 0.207704,-0.6042289 h 0.566465 q 0,0.6105229 -0.365055,0.9692838 -0.365055,0.3524668 -0.981872,0.3524668 z m 2.416917,-0.06294 V 0.50882082 h 0.566465 V 2.3026251 h 0.0063 q 0.04406,-0.3461727 0.283232,-0.5349942 0.239174,-0.1888215 0.635699,-0.1888215 0.522406,0 0.830815,0.3209965 0.308408,0.3209966 0.308408,0.874873 v 2.3287986 h -0.56647 V 2.8690897 q 0,-0.3902312 -0.20141,-0.5979348 -0.195115,-0.2139977 -0.534994,-0.2139977 -0.352467,0 -0.56017,0.2202917 -0.20141,0.2202918 -0.20141,0.623111 v 2.2029176 z m 3.902314,0 V 1.6417499 h 0.566464 v 0.6608752 h 0.01259 q 0.04406,-0.3335846 0.283232,-0.5287002 0.239174,-0.1951155 0.641993,-0.1951155 0.541288,0 0.830815,0.3272906 0.29582,0.3209965 0.29582,0.9189313 V 3.1208517 H 21.77236 V 2.8250313 q 0,-0.755286 -0.736403,-0.755286 -0.371349,0 -0.566465,0.2139977 -0.195116,0.2139977 -0.195116,0.6168169 v 2.2029176 z m 3.606494,0 V 4.5873654 h 1.227339 V 2.157862 H 23.440287 V 1.6417499 h 1.667923 v 2.9456155 h 1.164399 v 0.5161121 z m 1.447631,-4.0848386 q -0.207704,0 -0.32729,-0.10699887 -0.119587,-0.10699885 -0.119587,-0.28952631 0,-0.1888215 0.119587,-0.29582036 0.119586,-0.1132929 0.32729,-0.1132929 0.207704,0 0.327291,0.1132929 0.119587,0.10699886 0.119587,0.29582036 0,0.18252746 -0.119587,0.28952631 -0.119587,0.10699887 -0.327291,0.10699887 z m 3.543552,4.135191 q -0.579052,0 -0.900049,-0.2580561 -0.314702,-0.2643501 -0.314702,-0.7426979 h 0.566464 q 0,0.2391739 0.169939,0.377643 0.16994,0.1321751 0.478348,0.1321751 h 0.276939 q 0.314702,0 0.484641,-0.1384691 0.176234,-0.1384691 0.176234,-0.3902312 0,-0.4468775 -0.409113,-0.503524 L 27.877594,3.4922006 Q 27.525127,3.4418482 27.330012,3.2026743 27.134896,2.9572064 27.134896,2.5606812 q 0,-0.4531716 0.308408,-0.7112277 0.314703,-0.258056 0.862285,-0.258056 h 0.276939 q 0.503524,0 0.818226,0.251762 0.320997,0.2454679 0.346173,0.6482871 H 29.174168 Q 29.16158,2.3089192 28.997935,2.1893322 28.840584,2.0697453 28.582528,2.0697453 h -0.276939 q -0.289526,0 -0.453171,0.132175 -0.163646,0.1321751 -0.163646,0.3587609 0,0.3650549 0.333585,0.4154073 l 0.893755,0.125881 q 0.881167,0.125881 0.881167,1.0322242 0,0.4846419 -0.320996,0.7552861 -0.314703,0.2643501 -0.893755,0.2643501 z m 4.261074,-0.050352 q -0.427995,0 -0.686051,-0.245468 -0.258056,-0.251762 -0.258056,-0.6671693 V 2.157862 h -0.99446 V 1.6417499 h 0.99446 V 0.66617208 H 32.18902 V 1.6417499 h 1.416162 V 2.157862 H 32.18902 v 2.0329782 q 0,0.1762334 0.100705,0.2895263 0.106999,0.1069989 0.276938,0.1069989 h 1.007048 v 0.5161121 z m 2.077041,0 v -0.516113 h 1.227339 V 2.157862 H 34.769585 V 1.6417499 h 1.667923 v 2.9456155 h 1.164399 v 0.5161121 z m 1.447631,-4.0848386 q -0.207704,0 -0.32729,-0.10699887 -0.119587,-0.10699885 -0.119587,-0.28952631 0,-0.1888215 0.119587,-0.29582036 0.119586,-0.1132929 0.32729,-0.1132929 0.207704,0 0.327291,0.1132929 0.119587,0.10699886 0.119587,0.29582036 0,0.18252746 -0.119587,0.28952631 -0.119587,0.10699887 -0.327291,0.10699887 z m 3.379907,4.1477791 q -0.534994,0 -0.849697,-0.2958204 -0.314702,-0.3021144 -0.314702,-0.7867563 0,-0.3209965 0.144763,-0.5601704 0.144763,-0.2391739 0.402819,-0.371349 0.258056,-0.1384691 0.591641,-0.1384691 h 1.069988 V 2.7432086 q 0,-0.6734633 -0.736404,-0.6734633 -0.32729,0 -0.5287,0.1195869 -0.201409,0.119587 -0.213997,0.3335847 h -0.566465 q 0.03147,-0.4091133 0.377643,-0.6734634 0.352467,-0.2706441 0.931519,-0.2706441 0.629406,0 0.96299,0.3021144 0.339879,0.3021144 0.339879,0.8434027 v 2.379151 H 40.522348 V 4.4740725 H 40.50976 Q 40.459408,4.795069 40.188764,4.9838905 39.91812,5.166418 39.471242,5.1664189 Z m 0.138469,-0.4783478 q 0.415407,0 0.660875,-0.2014096 0.245468,-0.2014097 0.245468,-0.5475824 V 3.4544363 h -1.007048 q -0.276938,0 -0.453171,0.1699394 -0.16994,0.1636453 -0.16994,0.4405835 0,0.2895263 0.188822,0.4594657 0.195115,0.1636453 0.534994,0.1636462 z m 2.630915,0.4154073 V 1.6417499 h 0.566465 v 0.6608752 h 0.0063 q 0.04406,-0.3461727 0.283232,-0.5349942 0.239174,-0.1888215 0.635699,-0.1888215 0.522406,0 0.830815,0.3209965 0.308408,0.3209966 0.308408,0.874873 v 2.3287986 h -0.56647 V 2.8753837 q 0,-0.3965252 -0.20141,-0.6042288 -0.195116,-0.2139977 -0.534994,-0.2139977 -0.352467,0 -0.560171,0.2202917 -0.201409,0.2202918 -0.201409,0.623111 v 2.2029176 z m 7.426983,0 V 0.50882082 h 0.837109 l 0.585346,1.98891988 0.610523,-1.98891988 h 0.837109 V 5.1034775 H 51.990114 V 2.9320302 q 0,-0.3084085 0.0063,-0.7049337 0.01259,-0.4028192 0.03147,-0.8119324 0.01888,-0.4091133 0.04406,-0.73640392 L 51.329238,3.0516171 H 50.838302 L 50.127075,0.73540663 q 0.05035,0.46575967 0.06923,1.01963617 0.01888,0.5538764 0.01888,1.1769874 v 2.1714473 z m 5.211476,0.06294 q -0.610523,0 -0.988166,-0.3650549 Q 53.51957,4.4300141 53.51957,3.7817269 V 2.9635004 q 0,-0.6482872 0.371349,-1.0133421 0.377643,-0.3713489 0.988166,-0.3713489 0.409113,0 0.711227,0.1636453 0.308409,0.1636453 0.478348,0.4594656 0.169939,0.2958204 0.169939,0.6986396 v 0.6168169 h -2.165153 v 0.3272906 q 0,0.3839371 0.220292,0.6105229 0.220292,0.2202918 0.585347,0.2202918 0.314702,0 0.516112,-0.119587 0.207703,-0.125881 0.251762,-0.3335847 h 0.566464 Q 56.156777,4.6565999 55.791722,4.914656 55.426667,5.166418 54.879085,5.1664184 Z M 54.073446,3.0767933 h 1.611277 V 2.9005599 q 0,-0.4091133 -0.213998,-0.629405 -0.207703,-0.2265858 -0.59164,-0.2265858 -0.383937,0 -0.597935,0.2265858 -0.207704,0.2202917 -0.207704,0.629405 z m 4.57578,2.0896247 q -0.597934,0 -0.956695,-0.3524668 Q 57.33377,4.4551903 57.33377,3.8446674 V 1.6417499 h 0.566464 v 2.2029175 q 0,0.377643 0.20141,0.6042289 0.20141,0.2202917 0.547582,0.2202917 0.352467,0 0.553877,-0.2202917 0.207703,-0.2265859 0.207703,-0.6042289 V 1.6417499 h 0.566465 v 2.2029175 q 0,0.6105229 -0.365055,0.9692838 -0.365055,0.3524668 -0.96299,0.3524668 z M 62.293483,5.15383 q -0.579052,0 -0.900049,-0.2580561 Q 61.078732,4.6314238 61.078732,4.153076 h 0.566464 q 0,0.2391739 0.16994,0.377643 0.169939,0.1321751 0.478347,0.1321751 h 0.276939 q 0.314702,0 0.484641,-0.1384691 0.176234,-0.1384691 0.176234,-0.3902312 0,-0.4468775 -0.409113,-0.503524 L 61.865488,3.4922006 Q 61.513021,3.4418482 61.317906,3.2026743 61.12279,2.9572064 61.12279,2.5606812 q 0,-0.4531716 0.308408,-0.7112277 0.314703,-0.258056 0.862285,-0.258056 h 0.276939 q 0.503524,0 0.818226,0.251762 0.320997,0.2454679 0.346173,0.6482871 H 63.162062 Q 63.149474,2.3089192 62.985829,2.1893322 62.828478,2.0697453 62.570422,2.0697453 h -0.276939 q -0.289526,0 -0.453171,0.132175 -0.163646,0.1321751 -0.163646,0.3587609 0,0.3650549 0.333585,0.4154073 l 0.893755,0.125881 q 0.881167,0.125881 0.881167,1.0322242 0,0.4846419 -0.320996,0.7552861 -0.314703,0.2643501 -0.893755,0.2643501 z m 3.914902,0.012588 q -0.610523,0 -0.988166,-0.3650549 Q 64.84887,4.4300141 64.84887,3.7817269 V 2.9635004 q 0,-0.6482872 0.371349,-1.0133421 0.377643,-0.3713489 0.988166,-0.3713489 0.409113,0 0.711227,0.1636453 0.308409,0.1636453 0.478348,0.4594656 0.169939,0.2958204 0.169939,0.6986396 v 0.6168169 h -2.165153 v 0.3272906 q 0,0.3839371 0.220292,0.6105229 0.220292,0.2202918 0.585347,0.2202918 0.314702,0 0.516112,-0.119587 0.207703,-0.125881 0.251762,-0.3335847 h 0.566464 Q 67.486077,4.6565999 67.121022,4.914656 66.755967,5.166418 66.208385,5.166418 Z M 65.402746,3.0767933 h 1.611277 V 2.9005599 q 0,-0.4091133 -0.213998,-0.629405 -0.207703,-0.2265858 -0.59164,-0.2265858 -0.383938,0 -0.597935,0.2265858 -0.207704,0.2202917 -0.207704,0.629405 z m 5.085595,2.0266842 q -0.459466,0 -0.736404,-0.2643501 Q 69.481293,4.5684832 69.481293,4.1278997 V 1.0249329 h -1.19587 V 0.50882082 h 1.762334 V 4.1278997 q 0,0.2139977 0.119587,0.3398787 0.119587,0.119587 0.320997,0.119587 h 1.069988 v 0.5161121 z"
       id="text1"
       style="font-size:6.29405px;line-height:1.25;font-family:'JetBrains Mono';-inkscape-font-specification:'JetBrains Mono';stroke-width:0.188919"
       aria-label="Christian Meusel" /><path
       style="font-weight:200;font-size:3.71685px;line-height:1.25;font-family:'JetBrains Mono';-inkscape-font-specification:'JetBrains Mono Ultra-Light';stroke-width:0.277458"
       d="M 12.073767,9.4344978 V 6.7211973 h 1.494174 v 0.223011 H 12.31908 v 0.9626642 h 1.118771 V 8.1261666 H 12.31908 v 1.0853202 h 1.248861 v 0.223011 z m 2.070287,0 V 7.3902303 h 0.215578 v 0.2750469 h 0.0074 q 0.01487,-0.1449571 0.107789,-0.2267278 0.09292,-0.085488 0.237878,-0.085488 0.141241,0 0.237879,0.081771 0.100355,0.081771 0.137523,0.2192942 0.01858,-0.1412403 0.111506,-0.2192942 0.09664,-0.081771 0.245312,-0.081771 0.189559,0 0.301065,0.1375235 0.115222,0.1338066 0.115222,0.3605344 V 9.4344978 H 15.627077 V 7.8622703 q 0,-0.1412403 -0.07062,-0.2267279 -0.0669,-0.085488 -0.185842,-0.085488 -0.118939,0 -0.18956,0.085488 -0.07062,0.081771 -0.07062,0.2267279 V 9.4344978 H 14.894858 V 7.8622703 q 0,-0.1412403 -0.07062,-0.2267279 -0.0669,-0.085488 -0.185843,-0.085488 -0.118939,0 -0.189559,0.085488 -0.07062,0.081771 -0.07062,0.2267279 v 1.5722275 z m 3.166758,0.037168 q -0.215577,0 -0.367968,-0.096638 Q 16.79417,9.2746733 16.745851,9.0999813 V 9.4344978 H 16.500539 V 6.7211973 h 0.245312 v 0.5723949 l -0.0037,0.4311546 q 0.05204,-0.1709751 0.20071,-0.27133 0.152391,-0.100355 0.367968,-0.100355 0.304782,0 0.486907,0.2044268 0.185843,0.2044267 0.185843,0.5463769 v 0.620714 q 0,0.3419502 -0.185843,0.5463769 -0.182125,0.2007099 -0.486907,0.2007099 z m -0.0669,-0.2118604 q 0.230444,0 0.360534,-0.1338066 0.133807,-0.1375235 0.133807,-0.4014198 V 8.103865 q 0,-0.2638963 -0.133807,-0.4014198 -0.13009,-0.1375234 -0.360534,-0.1375234 -0.237879,0 -0.367969,0.1449571 -0.130089,0.1449572 -0.130089,0.4014198 v 0.6058466 q 0,0.2564626 0.130089,0.4014198 0.133807,0.1412403 0.367969,0.1412403 z m 2.222677,0.2118604 q -0.3531,0 -0.557527,-0.2081436 -0.20071,-0.2081436 -0.20071,-0.5649612 V 8.1261666 q 0,-0.3568176 0.204427,-0.5649612 0.204427,-0.2081436 0.55381,-0.2081436 0.345667,0 0.546377,0.2081436 0.204427,0.2044268 0.204427,0.5500938 v 0.3568176 h -1.267446 v 0.2453121 q 0,0.249029 0.133807,0.397703 0.137523,0.1449571 0.382835,0.1449571 0.196993,0 0.3308,-0.085487 0.133807,-0.089204 0.159825,-0.2453121 h 0.245312 q -0.03717,0.2527458 -0.237879,0.4014198 -0.196993,0.1449571 -0.498058,0.1449561 z M 18.949944,8.2674069 h 1.025851 V 8.1112992 q 0,-0.2564626 -0.133807,-0.4014198 -0.133806,-0.148674 -0.375402,-0.148674 -0.249029,0 -0.382835,0.1449572 -0.133807,0.1449571 -0.133807,0.4051366 z m 2.664983,1.2042594 q -0.304782,0 -0.490624,-0.2007099 -0.182126,-0.2044267 -0.182126,-0.5463769 v -0.620714 q 0,-0.3419502 0.182126,-0.5463769 0.185842,-0.2044268 0.490624,-0.2044268 0.215577,0 0.364251,0.100355 0.152391,0.1003549 0.204427,0.27133 l -0.0037,-0.4311546 V 6.7211973 H 22.4252 V 9.4344978 H 22.179888 V 9.0999813 q -0.04832,0.174692 -0.20071,0.2750469 -0.148674,0.096638 -0.364251,0.096638 z m 0.0669,-0.2118604 q 0.234162,0 0.364251,-0.1412403 0.133807,-0.1449572 0.133807,-0.4014198 V 8.1112992 q 0,-0.2564626 -0.13009,-0.4014198 -0.130089,-0.1449571 -0.367968,-0.1449571 -0.230445,0 -0.364251,0.1375234 -0.13009,0.1375235 -0.13009,0.4014198 v 0.620714 q 0,0.2638963 0.13009,0.4014198 0.133806,0.1338066 0.364251,0.1338066 z m 2.163208,0.2118604 q -0.304782,0 -0.490624,-0.2007099 -0.182126,-0.2044267 -0.182126,-0.5463769 v -0.620714 q 0,-0.3419502 0.182126,-0.5463769 0.185842,-0.2044268 0.490624,-0.2044268 0.215577,0 0.364251,0.100355 0.152391,0.1003549 0.204427,0.27133 l -0.0037,-0.4311546 V 6.7211973 h 0.245312 V 9.4344978 H 24.409999 V 9.0999813 q -0.04832,0.174692 -0.20071,0.2750469 -0.148674,0.096638 -0.364251,0.096638 z m 0.0669,-0.2118604 q 0.234162,0 0.364252,-0.1412403 0.133806,-0.1449572 0.133806,-0.4014198 V 8.1112992 q 0,-0.2564626 -0.13009,-0.4014198 -0.130089,-0.1449571 -0.367968,-0.1449571 -0.230444,0 -0.364251,0.1375234 -0.13009,0.1375235 -0.13009,0.4014198 v 0.620714 q 0,0.2638963 0.13009,0.4014198 0.133807,0.1338066 0.364251,0.1338066 z m 2.24498,0.2118604 q -0.353101,0 -0.557528,-0.2081436 -0.20071,-0.2081436 -0.20071,-0.5649612 V 8.1261666 q 0,-0.3568176 0.204427,-0.5649612 0.204427,-0.2081436 0.553811,-0.2081436 0.345667,0 0.546377,0.2081436 0.204426,0.2044268 0.204426,0.5500938 v 0.3568176 h -1.267445 v 0.2453121 q 0,0.249029 0.133806,0.397703 0.137524,0.1449571 0.382836,0.1449571 0.196993,0 0.330799,-0.085487 0.133807,-0.089204 0.159825,-0.2453121 h 0.245312 Q 26.855681,9.1780357 26.654973,9.3267097 26.45798,9.4716668 26.156915,9.4716663 Z M 25.640279,8.2674069 h 1.02585 V 8.1112992 q 0,-0.2564626 -0.133806,-0.4014198 -0.133807,-0.148674 -0.375402,-0.148674 -0.249029,0 -0.382836,0.1449572 -0.133806,0.1449571 -0.133806,0.4051366 z m 2.664982,1.2042594 q -0.304782,0 -0.490624,-0.2007099 -0.182126,-0.2044267 -0.182126,-0.5463769 v -0.620714 q 0,-0.3419502 0.182126,-0.5463769 0.185842,-0.2044268 0.490624,-0.2044268 0.215577,0 0.364251,0.100355 0.152391,0.1003549 0.204427,0.27133 l -0.0037,-0.4311546 V 6.7211973 h 0.245312 V 9.4344978 H 28.870222 V 9.0999813 q -0.04832,0.174692 -0.20071,0.2750469 -0.148674,0.096638 -0.364251,0.096638 z m 0.0669,-0.2118604 q 0.234162,0 0.364252,-0.1412403 0.133806,-0.1449572 0.133806,-0.4014198 V 8.1112992 q 0,-0.2564626 -0.130089,-0.4014198 -0.13009,-0.1449571 -0.367969,-0.1449571 -0.230444,0 -0.364251,0.1375234 -0.13009,0.1375235 -0.13009,0.4014198 v 0.620714 q 0,0.2638963 0.13009,0.4014198 0.133807,0.1338066 0.364251,0.1338066 z m 4.489958,0.2118604 q -0.252745,0 -0.442305,-0.096638 -0.185842,-0.096638 -0.289914,-0.27133 -0.104072,-0.174692 -0.104072,-0.4125704 h 0.241595 q 0,0.2527458 0.163542,0.4088535 0.163541,0.1523909 0.431154,0.1523909 0.249029,0 0.405137,-0.1412403 0.156108,-0.1449572 0.156108,-0.3754019 0,-0.1932762 -0.104072,-0.3382333 -0.104069,-0.1449573 -0.289911,-0.20071 L 32.639111,8.0815644 Q 32.386366,8.0072274 32.241409,7.8176681 32.096451,7.6281087 32.096451,7.3790798 q 0,-0.2081436 0.09292,-0.3642513 0.09664,-0.1561077 0.263896,-0.2415953 0.170975,-0.089204 0.393986,-0.089204 0.223011,0 0.393986,0.092921 0.170975,0.089204 0.267613,0.2527458 0.09664,0.1635414 0.09664,0.3754018 h -0.241595 q 0,-0.223011 -0.144957,-0.3642513 -0.144957,-0.1412403 -0.371685,-0.1412403 -0.226728,0 -0.367968,0.1300898 -0.14124,0.1300897 -0.14124,0.3345165 0,0.1746919 0.09292,0.3047817 0.09664,0.1300897 0.267613,0.1821256 l 0.393986,0.1189392 q 0.263897,0.078054 0.416287,0.2824806 0.152391,0.2044268 0.152391,0.4757568 0,0.223011 -0.100355,0.3902693 -0.100355,0.1672582 -0.28248,0.2601795 Q 33.1,9.4716662 32.862121,9.4716662 Z m 1.80639,0.6318647 0.301065,-0.8065566 -0.761955,-1.9067441 h 0.27133 l 0.494341,1.2860301 q 0.03717,0.092921 0.07062,0.1895594 0.03717,0.092921 0.05203,0.148674 0.01859,-0.055753 0.04832,-0.1523909 0.03345,-0.096638 0.0669,-0.1895593 l 0.464606,-1.2823133 h 0.263896 l -1.018416,2.7133007 z m 2.534894,-0.6355815 q -0.304782,0 -0.490625,-0.1523909 Q 36.530656,9.1631678 36.515788,8.910422 H 36.7611 q 0.01859,0.1523908 0.133807,0.2490289 0.118939,0.092921 0.308499,0.092921 h 0.226727 q 0.196993,0 0.308499,-0.096638 0.111505,-0.096638 0.111505,-0.2638964 0,-0.148674 -0.08177,-0.2490289 -0.07805,-0.1040718 -0.226728,-0.1226561 l -0.494341,-0.066903 q -0.241595,-0.033452 -0.375402,-0.1672582 -0.13009,-0.1375235 -0.13009,-0.3679682 0,-0.2601795 0.178409,-0.4088535 0.178409,-0.1523908 0.486907,-0.1523908 h 0.185843 q 0.286197,0 0.464606,0.1412403 0.182126,0.1412403 0.204427,0.371685 H 37.816686 Q 37.798102,7.7396142 37.682879,7.6541267 37.571374,7.5686391 37.392965,7.5686391 h -0.185843 q -0.196993,0 -0.308498,0.092921 -0.111506,0.092921 -0.111506,0.2527458 0,0.2676132 0.312216,0.3084985 l 0.475757,0.063187 q 0.245312,0.033452 0.379118,0.1932762 0.137524,0.1561077 0.137524,0.3977029 0,0.2750469 -0.178409,0.4348715 -0.174692,0.1561077 -0.483191,0.1561077 z m 2.534893,-0.033452 q -0.241595,0 -0.379118,-0.1300897 -0.133804,-0.1300895 -0.133804,-0.364251 V 7.6132413 h -0.598413 v -0.223011 h 0.598413 V 6.8141186 h 0.245312 v 0.5761117 h 0.847442 v 0.223011 h -0.847442 v 1.3269155 q 0,0.1300897 0.07062,0.2007099 0.07062,0.07062 0.196993,0.07062 h 0.561245 v 0.223011 z m 2.029401,0.037168 q -0.353101,0 -0.557528,-0.2081436 -0.20071,-0.2081436 -0.20071,-0.5649612 V 8.1261666 q 0,-0.3568176 0.204427,-0.5649612 0.204427,-0.2081436 0.553811,-0.2081436 0.345667,0 0.546377,0.2081436 0.204426,0.2044268 0.204426,0.5500938 v 0.3568176 h -1.267446 v 0.2453121 q 0,0.249029 0.133807,0.397703 0.137523,0.1449571 0.382836,0.1449571 0.196993,0 0.330799,-0.085487 0.133807,-0.089204 0.159825,-0.2453121 h 0.245312 Q 42.466467,9.1780352 42.265757,9.3267092 42.068764,9.4716663 41.7677,9.4716663 Z m -0.51664,-1.2042586 h 1.025851 V 8.1112992 q 0,-0.2564626 -0.133807,-0.4014198 -0.133806,-0.148674 -0.375401,-0.148674 -0.249029,0 -0.382836,0.1449572 -0.133807,0.1449571 -0.133807,0.4051366 z m 1.884445,1.1670909 V 7.3902303 h 0.215578 v 0.2750469 h 0.0074 q 0.01487,-0.1449571 0.107789,-0.2267278 0.09292,-0.085488 0.237878,-0.085488 0.141241,0 0.237879,0.081771 0.100355,0.081771 0.137523,0.2192942 0.01858,-0.1412403 0.111506,-0.2192942 0.09664,-0.081771 0.245312,-0.081771 0.189559,0 0.301065,0.1375235 0.115222,0.1338066 0.115222,0.3605344 V 9.4344978 H 44.618526 V 7.8622703 q 0,-0.1412403 -0.07062,-0.2267279 -0.0669,-0.085488 -0.185842,-0.085488 -0.118939,0 -0.189559,0.085488 -0.07062,0.081771 -0.07062,0.2267279 V 9.4344978 H 43.886306 V 7.8622703 q 0,-0.1412403 -0.07062,-0.2267279 -0.0669,-0.085488 -0.185843,-0.085488 -0.118939,0 -0.189559,0.085488 -0.07062,0.081771 -0.07062,0.2267279 v 1.5722275 z m 2.98835,0.033452 q -0.304782,0 -0.490624,-0.1523909 Q 45.451102,9.1631678 45.436235,8.910422 h 0.245312 q 0.01858,0.1523908 0.133806,0.2490289 0.11894,0.092921 0.308499,0.092921 h 0.226728 q 0.196993,0 0.308498,-0.096638 0.111506,-0.096638 0.111506,-0.2638964 0,-0.148674 -0.08177,-0.2490289 Q 46.610759,8.538737 46.462085,8.5201527 L 45.967744,8.4532494 Q 45.726149,8.4197978 45.592342,8.2859912 45.462253,8.1484677 45.462253,7.918023 q 0,-0.2601795 0.178408,-0.4088535 0.178409,-0.1523908 0.486908,-0.1523908 h 0.185842 q 0.286198,0 0.464607,0.1412403 0.182125,0.1412403 0.204426,0.371685 H 46.737132 Q 46.718548,7.7396142 46.603326,7.6541267 46.49182,7.5686391 46.313411,7.5686391 h -0.185842 q -0.196993,0 -0.308499,0.092921 -0.111505,0.092921 -0.111505,0.2527458 0,0.2676132 0.312215,0.3084985 l 0.475757,0.063187 q 0.245312,0.033452 0.379119,0.1932762 0.137523,0.1561077 0.137523,0.3977029 0,0.2750469 -0.178409,0.4348715 -0.174692,0.1561077 -0.48319,0.1561077 z m 4.441636,-0.033452 V 6.9442083 h -0.780539 v -0.223011 h 1.798956 v 0.223011 H 50.8108 v 2.4902895 z m 1.572232,0 v -0.223011 h 0.739653 V 7.6132413 h -0.654166 v -0.223011 h 0.899478 v 1.8212565 h 0.695051 v 0.223011 z m 0.832574,-2.427103 q -0.107789,0 -0.170975,-0.055753 -0.06319,-0.05947 -0.06319,-0.1598245 0,-0.100355 0.06319,-0.1598246 0.06319,-0.05947 0.170975,-0.05947 0.107789,0 0.170975,0.05947 0.06319,0.05947 0.06319,0.1598246 0,0.1003549 -0.06319,0.1598245 -0.06319,0.055753 -0.170975,0.055753 z m 1.442138,3.0961362 V 7.3902303 h 0.245312 v 0.3345165 q 0.04832,-0.1709751 0.196993,-0.27133 0.148674,-0.100355 0.367968,-0.100355 0.304782,0 0.486908,0.2044268 0.185842,0.2007099 0.185842,0.5426601 v 0.6207139 q 0,0.3419502 -0.185842,0.546377 -0.182126,0.2044267 -0.486908,0.2044267 -0.219294,0 -0.371685,-0.1003549 -0.148674,-0.1040718 -0.196993,-0.2824806 l 0.0037,0.3754018 v 0.6392984 z m 0.74337,-0.8437251 q 0.230445,0 0.360534,-0.1338066 0.133807,-0.1375235 0.133807,-0.4051367 V 8.1001487 q 0,-0.2638964 -0.133807,-0.397703 -0.130089,-0.1375234 -0.360534,-0.1375234 -0.234162,0 -0.367968,0.1449571 -0.13009,0.1412403 -0.13009,0.397703 v 0.6058465 q 0,0.2564627 0.13009,0.4014198 0.133806,0.1449572 0.367968,0.1449572 z m 4.6535,0.1746919 q -0.241595,0 -0.379118,-0.1300897 Q 59.296377,9.1743183 59.296377,8.9401568 V 7.6132413 h -0.598413 v -0.223011 h 0.598413 V 6.8141186 h 0.245312 v 0.5761117 h 0.847442 v 0.223011 h -0.847442 v 1.3269155 q 0,0.1300897 0.07062,0.2007099 0.07062,0.07062 0.196993,0.07062 h 0.561245 v 0.223011 z m 2.025684,0.033452 q -0.345667,0 -0.550094,-0.2044268 Q 61.080465,9.0553794 61.080465,8.694845 V 8.1298835 q 0,-0.3605345 0.204427,-0.5649612 0.204427,-0.2081436 0.550094,-0.2081436 0.345667,0 0.550093,0.2081436 0.204427,0.2044267 0.204427,0.5649612 v 0.5649612 q 0,0.3605344 -0.204427,0.568678 -0.204426,0.2044268 -0.550093,0.2044271 z m 0,-0.2155773 q 0.241595,0 0.375402,-0.1412403 0.133806,-0.1412403 0.133806,-0.4014198 v -0.594696 q 0,-0.2601795 -0.137523,-0.4014198 -0.133807,-0.1412403 -0.371685,-0.1412403 -0.237879,0 -0.375402,0.1412403 -0.133807,0.1412403 -0.133807,0.4014198 v 0.594696 q 0,0.2601795 0.133807,0.4014198 0.133806,0.1412403 0.375402,0.1412403 z m 4.341285,0.1821256 V 6.9442083 h -0.780539 v -0.223011 h 1.798956 v 0.223011 h -0.773105 v 2.4902895 z m 2.349049,0.033452 q -0.345667,0 -0.550094,-0.2044268 -0.204427,-0.2081436 -0.204427,-0.568678 V 8.1298835 q 0,-0.3605345 0.204427,-0.5649612 0.204427,-0.2081436 0.550094,-0.2081436 0.345667,0 0.550094,0.2081436 0.204427,0.2044267 0.204427,0.5649612 v 0.5649612 q 0,0.3605344 -0.204427,0.568678 -0.204427,0.2044268 -0.550094,0.2044274 z m 0,-0.2155773 q 0.241595,0 0.375402,-0.1412403 0.133806,-0.1412403 0.133806,-0.4014198 v -0.594696 q 0,-0.2601795 -0.137523,-0.4014198 Q 68.763198,7.572356 68.52532,7.572356 q -0.237878,0 -0.375402,0.1412403 -0.133806,0.1412403 -0.133806,0.4014198 v 0.594696 q 0,0.2601795 0.133806,0.4014198 0.133807,0.1412403 0.375402,0.1412409 z m 2.233827,0.2192941 q -0.353101,0 -0.557528,-0.2081436 Q 70.00091,9.0553791 70.00091,8.6985615 V 8.1261666 q 0,-0.3568176 0.204426,-0.5649612 0.204427,-0.2081436 0.553811,-0.2081436 0.345667,0 0.546377,0.2081436 0.204427,0.2044268 0.204427,0.5500938 v 0.3568176 h -1.267446 v 0.2453121 q 0,0.249029 0.133806,0.397703 0.137524,0.1449571 0.382836,0.1449571 0.196993,0 0.3308,-0.085487 0.133806,-0.089204 0.159824,-0.2453121 h 0.245312 q -0.03717,0.2527458 -0.237878,0.4014198 -0.196993,0.1449571 -0.498058,0.1449572 z m -0.516642,-1.20426 h 1.02585 V 8.1112992 q 0,-0.2564626 -0.133806,-0.4014198 -0.133807,-0.148674 -0.375402,-0.148674 -0.249029,0 -0.382836,0.1449572 -0.133806,0.1449571 -0.133806,0.4051366 z"
       id="text2"
       aria-label="Embedded Systems Tip to Toe" /></g></svg>
