<?xml version="1.0" encoding="UTF-8"?><svg id="Layer_1" xmlns="http://www.w3.org/2000/svg" width="800" height="800" viewBox="0 0 800 800"><defs><style>.cls-1{fill:#ffe6d6;}.cls-1,.cls-2,.cls-3,.cls-4,.cls-5,.cls-6,.cls-7{stroke-width:0px;}.cls-2{fill:#000;}.cls-3{fill:#ffa700;}.cls-4{fill:#f74c00;}.cls-5{fill:#e69601;}.cls-6{fill:#a52b00;}.cls-7{fill:#fff;}</style></defs><rect class="cls-3" width="800" height="800"/><polygon class="cls-5" points="800 800 800 0 0 0 800 800"/><path id="path1" class="cls-1" d="M48,512.1h8.76v-78.86h-8.76v-28.74h80.44c15.07,0,26.58,3.1,34.52,9.29,7.94,6.19,11.92,16.24,11.92,30.14.18,7.07-1.45,14.07-4.73,20.33-2.89,5.49-7.69,9.73-13.49,11.92l.17,1.75c11.22,1.75,16.82,8.65,16.82,20.68v13.49h8.24v28.74h-55.56v-41.18c0-4.56-.67-8-2.02-10.34-1.38-2.36-3.65-4.07-6.31-4.73-3.99-.94-8.08-1.35-12.18-1.23v28.74h11.57v28.74H48v-28.74ZM115.3,461.98c3.39,0,5.93-.91,7.62-2.72,1.69-1.81,2.54-4.64,2.54-8.5v-6.31c0-3.86-.85-6.69-2.54-8.5s-4.24-2.72-7.62-2.72h-9.46v28.74h9.46ZM303.17,512.1v28.74h-48.02v-13.67c-8.41,10.75-18.93,16.12-31.55,16.12-9.7,0-16.97-3.04-21.82-9.11s-7.27-14.43-7.27-25.06v-36.98h-7.71v-28.74h48.02v57.48c0,3.86.85,6.69,2.54,8.5s4.24,2.72,7.62,2.72c3.39,0,5.93-.91,7.62-2.72s2.54-4.64,2.54-8.5v-28.74h-9.46v-28.74h49.77v68.7h7.71ZM350.67,543.3c-14.49.04-28.88-2.33-42.59-7.01v-25.94h28.39v1.75c0,5.61,3.56,8.41,10.69,8.41,6.31,0,9.46-2.16,9.46-6.48.12-2.12-.92-4.13-2.72-5.26-1.81-1.16-4.99-2.16-9.55-2.98l-8.76-1.58c-18.34-3.27-27.51-13.67-27.51-31.2,0-10.16,3.86-18.05,11.57-23.66,7.71-5.61,18.11-8.41,31.2-8.41,14.6,0,26.93,2.45,36.98,7.36v24.36h-26.64v-1.75c.12-2.06-.76-4.05-2.37-5.34-2.04-1.36-4.48-2.01-6.92-1.84-5.84,0-8.76,1.87-8.76,5.61-.07,1.85.87,3.6,2.45,4.56,2.8,1.46,5.82,2.47,8.94,2.98l9.99,1.93c10.4,1.99,17.82,5.67,22.26,11.04,4.44,5.37,6.66,12.26,6.67,20.67,0,10.63-3.71,18.75-11.13,24.36-7.42,5.61-17.96,8.41-31.63,8.42h0ZM442.32,543.3c-12.38,0-21.7-3.01-27.95-9.03-6.25-6.02-9.38-16.15-9.38-30.41v-31.72h-7.71v-28.74c4.44,0,7.77-1.14,9.99-3.42,2.32-2.55,3.52-5.93,3.33-9.38v-7.89h37.16v20.68h23.66v28.74h-23.66v28.74c0,3.86.85,6.69,2.54,8.5s4.24,2.72,7.62,2.72c4.89-.05,9.76-.58,14.55-1.58v27.51c-4.3,1.57-8.73,2.77-13.23,3.59-5.57,1.11-11.23,1.67-16.91,1.67h0ZM579.38,404.49h57.48v28.74h-8.76v107.61h-49.25l-51.35-79.04v50.3h8.41v28.74h-57.48v-28.75h8.76v-78.86h-8.76v-28.74h63.27l46.09,70.28v-41.54h-8.41v-28.74ZM643.52,540.84v-28.74h8.76v-78.86h-8.76v-28.74h73.96v28.74h-16.12v78.86h15.77v-16.12h34.88v44.86h-108.48Z"/><g id="Layer-1"><g id="g2"><path id="path1-5" class="cls-6" d="M391.68,356.26c-38,0-72.53,4.58-98.09,12.05v63.78c25.56,7.47,60.09,12.05,98.09,12.05,43.5,0,82.44-6,108.59-15.46v-56.95c-26.16-9.46-65.1-15.46-108.59-15.46"/></g><g id="g3"><path id="path2-3" class="cls-6" d="M539.45,408.08l-4.45-9.25c.02-.35.04-.7.04-1.06,0-10.49-10.88-20.16-29.18-27.9v55.8c8.54-3.61,15.47-7.64,20.42-11.98-1.46,5.88-6.45,17.78-10.42,26.14-6.54,11.97-8.9,22.38-8.6,22.9.19.32,2.42-3.12,5.71-8.71,7.65-10.93,22.15-31.81,25.05-37.12,3.28-6.03,1.43-8.81,1.43-8.81"/></g><g id="g4"><path id="path3" class="cls-6" d="M251.16,398.38c0,2.02.41,4.01,1.19,5.96l-2.67,4.76s-2.14,2.78,1.63,8.65c3.32,5.17,19.95,25.42,28.72,36.02,3.77,5.44,6.33,8.78,6.55,8.46.35-.51-2.34-10.72-9.83-22.36-3.49-6.25-7.67-14.54-10.17-20.66,6.99,4.44,16.14,8.46,27,11.93v-65.52c-26.19,8.35-42.42,19.94-42.42,32.76"/></g><g id="g5"><path id="path4" class="cls-4" d="M565.31,408.03l-29.28-21.63c-.28-.96-.55-1.93-.83-2.88l9.62-13.97c.98-1.42,1.18-3.27.54-4.89-.64-1.61-2.03-2.77-3.69-3.05l-16.26-2.77c-.63-1.29-1.29-2.56-1.95-3.82l6.83-15.69c.7-1.6.55-3.46-.38-4.91-.93-1.46-2.5-2.31-4.18-2.24l-16.51.6c-.85-1.12-1.72-2.22-2.61-3.31l3.79-16.81c.38-1.71-.1-3.49-1.29-4.74-1.18-1.24-2.89-1.75-4.52-1.35l-16.08,3.96c-1.04-.92-2.1-1.83-3.17-2.73l.58-17.26c.06-1.75-.75-3.41-2.15-4.38-1.39-.98-3.16-1.12-4.69-.4l-15,7.15c-1.21-.69-2.42-1.38-3.65-2.05l-2.65-17.01c-.27-1.72-1.37-3.19-2.92-3.86-1.54-.67-3.31-.45-4.67.57l-13.37,10.06c-1.32-.44-2.64-.86-3.98-1.26l-5.76-16.13c-.59-1.64-1.94-2.85-3.59-3.19-1.64-.34-3.33.23-4.47,1.51l-11.25,12.63c-1.36-.16-2.72-.3-4.09-.42l-8.69-14.68c-.88-1.49-2.44-2.39-4.11-2.39s-3.23.91-4.1,2.39l-8.69,14.68c-1.37.12-2.73.26-4.09.42l-11.26-12.63c-1.14-1.28-2.84-1.85-4.47-1.51-1.65.34-3,1.55-3.58,3.19l-5.77,16.13c-1.34.4-2.66.83-3.98,1.26l-13.37-10.06c-1.36-1.03-3.13-1.24-4.68-.57-1.54.67-2.65,2.13-2.92,3.86l-2.65,17.01c-1.23.67-2.44,1.35-3.65,2.05l-15-7.15c-1.52-.73-3.3-.58-4.69.4-1.39.97-2.21,2.63-2.14,4.38l.58,17.26c-1.07.89-2.12,1.8-3.17,2.73l-16.07-3.96c-1.63-.4-3.34.11-4.53,1.35-1.19,1.24-1.67,3.03-1.29,4.74l3.79,16.81c-.88,1.09-1.75,2.19-2.6,3.31l-16.51-.6c-1.67-.05-3.26.78-4.19,2.24-.93,1.45-1.07,3.31-.38,4.91l6.84,15.69c-.66,1.26-1.32,2.53-1.96,3.82l-16.26,2.77c-1.65.28-3.04,1.44-3.69,3.05-.64,1.62-.43,3.47.54,4.89l9.62,13.97c-.08.25-.14.5-.22.74l-27.2,28.97s-4.17,3.28,1.9,10.98c5.35,6.79,32.83,33.71,47.34,47.82,6.13,7.16,10.33,11.59,10.77,11.21.69-.61-2.94-13.64-15.02-28.92-9.3-13.71-21.38-34.81-18.55-37.24,0,0,3.22-4.1,9.68-7.05.24.19-.24-.19,0,0,0,0,136.4,63.1,262.93,1.07,14.45-2.6,23.2,5.16,23.2,5.16,3.02,1.75-4.8,23.44-11.22,37.8-8.74,16.3-10.02,29.02-9.28,29.46.47.28,3.65-4.57,8.18-12.29,11.19-15.64,32.35-45.45,36.22-52.69,4.39-8.21,0-10.51,0-10.51"/></g><g id="g6"><path id="path5" class="cls-2" d="M345.6,448.51c-.52-.45-.79-.71-.79-.71l44.68-3.67c-36.45-48.22-65.65-9.81-68.75-5.51v9.89h24.87Z"/></g><g id="g7"><path id="path6" class="cls-2" d="M438.63,447.99c.52-.45.79-.71.79-.71l-42.94-3.15c36.46-50.2,63.9-10.33,67.01-6.03v9.89h-24.87Z"/></g><g id="g8"><path id="path7" class="cls-4" d="M507.27,400.12s-4.88,19.5-35.25,40l-8.52,2s-27.55-50.38-66.57,6.39c0,0,12.16-7.1,44.77,1.55,0,0-15,23.02-45.21,22.31,0,0,28.95,34.83,73.02-15.48,0,0,46.58-18.06,50.36-56.77h-12.59Z"/></g><g id="g9"><path id="path8" class="cls-2" d="M416.77,375.14s13.63-14.97,27.26,0c0,0,10.71,19.96,0,29.94,0,0-17.53,13.97-27.26,0,0,0-11.68-10.98,0-29.94"/></g><g id="g10"><path id="path9" class="cls-7" d="M432.55,380.7c0,5.83-3.43,10.55-7.65,10.55s-7.65-4.72-7.65-10.55,3.43-10.55,7.65-10.55c4.22,0,7.65,4.73,7.65,10.55"/></g><g id="g11"><path id="path10" class="cls-2" d="M355.93,371.06s23.38-10.38,29.76,12.79c0,0,6.69,27.01-19.2,28.53,0,0-33.01-6.38-10.56-41.32"/></g><g id="g12"><path id="path11" class="cls-7" d="M367.68,381.08c0,6.01-3.53,10.88-7.89,10.88s-7.89-4.87-7.89-10.88,3.53-10.88,7.89-10.88,7.89,4.87,7.89,10.88"/></g><g id="g13"><path id="path12" class="cls-4" d="M342.8,452.15c28.79-3.64,45.42-3.98,45.42-3.98-38.51-50.95-69.76-4.82-69.76-4.82-7.83-2.81-15.81-13.71-21.78-23.76l-23.9-7.1c27.54,46.88,48.05,47.59,48.05,47.59,42.7,54.88,62.92,10.78,62.92,10.78-23.97-2.73-40.96-18.72-40.96-18.72"/></g></g></svg>