<?xml version="1.0" encoding="UTF-8"?><svg id="Layer_1" xmlns="http://www.w3.org/2000/svg" viewBox="0 0 1285.02 411.44"><path d="M0,369.28h11.84v-106.59H0v-38.85h108.72c20.37,0,35.92,4.19,46.66,12.55,10.74,8.37,16.11,21.95,16.11,40.74,0,10.58-2.13,19.74-6.4,27.48-4.26,7.74-10.34,13.11-18.24,16.11l.24,2.37c15.16,2.37,22.74,11.69,22.74,27.95v18.24h11.13v38.85h-75.09v-55.67c0-6.16-.91-10.81-2.72-13.97-1.82-3.16-4.66-5.29-8.53-6.4-3.87-1.1-9.36-1.66-16.46-1.66v38.85h15.63v38.85H0v-38.85ZM90.96,301.53c4.58,0,8.01-1.22,10.3-3.67,2.29-2.45,3.43-6.28,3.43-11.49v-8.53c0-5.21-1.15-9.04-3.43-11.49-2.29-2.45-5.73-3.67-10.3-3.67h-12.79v38.85h12.79Z" style="fill:#ffffff; stroke-width:0px;"/><path d="M344.88,369.28v38.85h-64.9v-18.48c-11.37,14.53-25.58,21.79-42.64,21.79-13.11,0-22.94-4.1-29.49-12.32-6.55-8.21-9.83-19.5-9.83-33.87v-49.98h-10.42v-38.85h64.9v77.69c0,5.21,1.14,9.04,3.43,11.49,2.29,2.45,5.72,3.67,10.3,3.67s8.01-1.22,10.3-3.67c2.29-2.45,3.43-6.28,3.43-11.49v-38.85h-12.79v-38.85h67.27v92.85h10.42Z" style="fill:#ffffff; stroke-width:0px;"/><path d="M351.51,401.97v-35.06h38.37v2.37c0,7.58,4.81,11.37,14.45,11.37,8.53,0,12.79-2.92,12.79-8.76,0-3.16-1.23-5.53-3.67-7.11-2.45-1.58-6.75-2.92-12.91-4.03l-11.84-2.13c-24.79-4.42-37.19-18.48-37.19-42.16,0-13.74,5.21-24.4,15.63-31.98,10.42-7.58,24.48-11.37,42.16-11.37,19.74,0,36.4,3.32,49.98,9.95v32.93h-36v-2.37c0-3.16-1.07-5.57-3.2-7.23-2.13-1.66-5.25-2.49-9.36-2.49-7.9,0-11.84,2.53-11.84,7.58,0,2.69,1.1,4.74,3.32,6.16,2.21,1.42,6.24,2.76,12.08,4.03l13.5,2.61c14.05,2.69,24.08,7.66,30.08,14.92,6,7.27,9,16.58,9,27.95,0,14.37-5.01,25.35-15.04,32.93-10.03,7.58-24.28,11.37-42.76,11.37-19.9,0-39.08-3.16-57.56-9.47Z" style="fill:#ffffff; stroke-width:0px;"/><path d="M495.18,399.24c-8.45-8.13-12.67-21.83-12.67-41.1v-42.87h-10.42v-38.85c6,0,10.5-1.54,13.5-4.62,3-3.08,4.5-7.3,4.5-12.67v-10.66h50.22v27.95h31.98v38.85h-31.98v38.85c0,5.21,1.14,9.04,3.43,11.49,2.29,2.45,5.72,3.67,10.3,3.67,6,0,12.55-.71,19.66-2.13v37.19c-4.42,1.74-10.38,3.36-17.88,4.85-7.5,1.5-15.12,2.25-22.86,2.25-16.74,0-29.33-4.06-37.78-12.2Z" style="fill:#ffffff; stroke-width:0px;"/><path d="M784.28,223.84h75.8v38.85h-9.47l-35.29,145.44h-70.83l-21.56-102.33h-2.37l-22.74,102.33h-70.83l-37.66-145.44h-9.47v-38.85h87.64v38.85h-9l9.24,60.4h2.37l22.5-99.25h68.22l20.85,99.25h2.37l9.24-60.4h-9v-38.85Z" style="fill:#ffffff; stroke-width:0px;"/><path d="M868.6,393.8c-12.64-11.76-18.95-28.94-18.95-51.52s6.31-39.75,18.95-51.52c12.63-11.76,30.16-17.65,52.58-17.65s38.33,5.8,48.2,17.41c9.87,11.61,14.8,26.02,14.8,43.23v17.06h-76.75v1.42c0,5.84,1.74,10.15,5.21,12.91,3.47,2.76,9.24,4.14,17.29,4.14,9.63,0,18.79-.71,27.48-2.13,8.68-1.42,16.26-3.23,22.74-5.45v37.9c-5.53,3-13.62,5.73-24.28,8.17-10.66,2.45-22.23,3.67-34.7,3.67-22.42,0-39.95-5.88-52.58-17.65ZM934.92,324.75v-2.84c0-5.37-1.15-9.24-3.43-11.61-2.29-2.37-5.73-3.55-10.3-3.55s-8.02,1.22-10.3,3.67c-2.29,2.45-3.44,6.28-3.44,11.49v2.84h27.48Z" style="fill:#ffffff; stroke-width:0px;"/><path d="M1009.3,393.8c-12.64-11.76-18.95-28.94-18.95-51.52s6.31-39.75,18.95-51.52c12.63-11.76,30.16-17.65,52.58-17.65s38.33,5.8,48.2,17.41c9.87,11.61,14.8,26.02,14.8,43.23v17.06h-76.75v1.42c0,5.84,1.74,10.15,5.21,12.91,3.47,2.76,9.24,4.14,17.29,4.14,9.63,0,18.79-.71,27.48-2.13,8.68-1.42,16.26-3.23,22.74-5.45v37.9c-5.53,3-13.62,5.73-24.28,8.17-10.66,2.45-22.23,3.67-34.7,3.67-22.42,0-39.95-5.88-52.58-17.65ZM1075.63,324.75v-2.84c0-5.37-1.15-9.24-3.43-11.61-2.29-2.37-5.73-3.55-10.3-3.55s-8.02,1.22-10.3,3.67c-2.29,2.45-3.44,6.28-3.44,11.49v2.84h27.48Z" style="fill:#ffffff; stroke-width:0px;"/><path d="M1274.83,369.28h10.19v38.85h-58.03l-24.4-45.48h-5.68v45.48h-64.9v-38.85h10.42v-106.59h-10.42v-38.85h64.9v96.17h5.68l29.37-43.58h49.98v38.85h-9.71l-20.13,22.5,22.74,31.5Z" style="fill:#ffffff; stroke-width:0px;"/><g id="Layer-1"><g id="g2"><path id="path1-5" d="M641.52,122.03c-46.57,0-88.89,5.61-120.22,14.77v78.17c31.33,9.16,73.65,14.77,120.22,14.77,53.31,0,101.04-7.35,133.09-18.95v-69.8c-32.06-11.59-79.79-18.95-133.09-18.95" style="fill:#a52b00; stroke-width:0px;"/></g><g id="g3"><path id="path2-3" d="M822.62,185.54l-5.45-11.34c.02-.43.05-.86.05-1.3,0-12.86-13.33-24.71-35.76-34.19v68.39c10.47-4.42,18.96-9.36,25.03-14.68-1.79,7.21-7.91,21.79-12.77,32.04-8.02,14.67-10.91,27.43-10.54,28.07.23.39,2.97-3.82,7-10.67,9.38-13.4,27.15-38.99,30.7-45.49,4.02-7.39,1.75-10.8,1.75-10.8" style="fill:#a52b00; stroke-width:0px;"/></g><g id="g4"><path id="path3" d="M469.3,173.65c0,2.48.5,4.91,1.46,7.3l-3.27,5.83s-2.62,3.41,2,10.6c4.07,6.34,24.45,31.15,35.2,44.15,4.62,6.67,7.76,10.76,8.03,10.37.43-.63-2.87-13.14-12.05-27.4-4.28-7.66-9.4-17.82-12.46-25.32,8.57,5.44,19.78,10.37,33.09,14.62v-80.3c-32.1,10.23-51.99,24.44-51.99,40.15" style="fill:#a52b00; stroke-width:0px;"/></g><g id="g5"><path id="path4" d="M854.31,185.48l-35.89-26.51c-.34-1.18-.67-2.37-1.02-3.53l11.79-17.12c1.2-1.74,1.45-4.01.66-5.99-.78-1.97-2.49-3.39-4.52-3.74l-19.93-3.39c-.77-1.58-1.58-3.14-2.39-4.68l8.37-19.23c.86-1.96.67-4.24-.47-6.02-1.14-1.79-3.06-2.83-5.12-2.75l-20.23.74c-1.04-1.37-2.11-2.72-3.2-4.06l4.64-20.6c.47-2.1-.12-4.28-1.58-5.81-1.45-1.52-3.54-2.14-5.54-1.65l-19.71,4.85c-1.27-1.13-2.57-2.24-3.89-3.35l.71-21.15c.07-2.14-.92-4.18-2.64-5.37-1.7-1.2-3.87-1.37-5.75-.49l-18.38,8.76c-1.48-.85-2.97-1.69-4.47-2.51l-3.25-20.85c-.33-2.11-1.68-3.91-3.58-4.73-1.89-.82-4.06-.55-5.72.7l-16.39,12.33c-1.62-.54-3.24-1.05-4.88-1.54l-7.06-19.77c-.72-2.01-2.38-3.49-4.4-3.91-2.01-.42-4.08.28-5.48,1.85l-13.79,15.48c-1.67-.2-3.33-.37-5.01-.51l-10.65-17.99c-1.08-1.83-2.99-2.93-5.04-2.93s-3.96,1.12-5.02,2.93l-10.65,17.99c-1.68.15-3.35.32-5.01.51l-13.8-15.48c-1.4-1.57-3.48-2.27-5.48-1.85-2.02.42-3.68,1.9-4.39,3.91l-7.07,19.77c-1.64.49-3.26,1.02-4.88,1.54l-16.39-12.33c-1.67-1.26-3.84-1.52-5.74-.7-1.89.82-3.25,2.61-3.58,4.73l-3.25,20.85c-1.51.82-2.99,1.65-4.47,2.51l-18.38-8.76c-1.86-.89-4.04-.71-5.75.49-1.7,1.19-2.71,3.22-2.62,5.37l.71,21.15c-1.31,1.09-2.6,2.21-3.89,3.35l-19.7-4.85c-2-.49-4.09.13-5.55,1.65-1.46,1.52-2.05,3.71-1.58,5.81l4.64,20.6c-1.08,1.34-2.14,2.68-3.19,4.06l-20.23-.74c-2.05-.06-4,.96-5.14,2.75-1.14,1.78-1.31,4.06-.47,6.02l8.38,19.23c-.81,1.54-1.62,3.1-2.4,4.68l-19.93,3.39c-2.02.34-3.73,1.76-4.52,3.74-.78,1.99-.53,4.25.66,5.99l11.79,17.12c-.1.31-.17.61-.27.91l-33.34,35.51s-5.11,4.02,2.33,13.46c6.56,8.32,40.24,41.31,58.02,58.61,7.51,8.78,12.66,14.2,13.2,13.74.85-.75-3.6-16.72-18.41-35.44-11.4-16.8-26.2-42.66-22.73-45.64,0,0,3.95-5.02,11.86-8.64.29.23-.29-.23,0,0,0,0,167.17,77.33,322.24,1.31,17.71-3.19,28.43,6.32,28.43,6.32,3.7,2.14-5.88,28.73-13.75,46.33-10.71,19.98-12.28,35.57-11.37,36.11.58.34,4.47-5.6,10.03-15.06,13.71-19.17,39.65-55.7,44.39-64.58,5.38-10.06,0-12.88,0-12.88" style="fill:#f74c00; stroke-width:0px;"/></g><g id="g6"><path id="path5" d="M585.04,235.09c-.64-.55-.97-.87-.97-.87l54.76-4.5c-44.67-59.1-80.46-12.02-84.26-6.75v12.12h30.48-.01Z" style="fill:#000; stroke-width:0px;"/></g><g id="g7"><path id="path6" d="M699.06,234.45c.64-.55.97-.87.97-.87l-52.63-3.86c44.68-61.52,78.32-12.66,82.13-7.39v12.12h-30.48.01Z" style="fill:#000; stroke-width:0px;"/></g><g id="g8"><path id="path7" d="M783.18,175.79s-5.98,23.9-43.2,49.02l-10.44,2.45s-33.76-61.75-81.59,7.83c0,0,14.9-8.7,54.87,1.9,0,0-18.38,28.21-55.41,27.34,0,0,35.48,42.69,89.49-18.97,0,0,57.09-22.13,61.72-69.58h-15.44Z" style="fill:#f74c00; stroke-width:0px;"/></g><g id="g9"><path id="path8" d="M672.27,145.17s16.7-18.35,33.41,0c0,0,13.13,24.46,0,36.69,0,0-21.48,17.12-33.41,0,0,0-14.31-13.46,0-36.69" style="fill:#000; stroke-width:0px;"/></g><g id="g10"><path id="path9" d="M691.6,151.99c0,7.15-4.2,12.93-9.38,12.93s-9.38-5.78-9.38-12.93,4.2-12.93,9.38-12.93,9.38,5.8,9.38,12.93" style="fill:#fff; stroke-width:0px;"/></g><g id="g11"><path id="path10" d="M597.7,140.17s28.65-12.72,36.47,15.68c0,0,8.2,33.1-23.53,34.97,0,0-40.46-7.82-12.94-50.64" style="fill:#000; stroke-width:0px;"/></g><g id="g12"><path id="path11" d="M612.1,152.45c0,7.37-4.33,13.33-9.67,13.33s-9.67-5.97-9.67-13.33,4.33-13.33,9.67-13.33,9.67,5.97,9.67,13.33" style="fill:#fff; stroke-width:0px;"/></g><g id="g13"><path id="path12" d="M581.61,239.55c35.28-4.46,55.67-4.88,55.67-4.88-47.2-62.44-85.5-5.91-85.5-5.91-9.6-3.44-19.38-16.8-26.69-29.12l-29.29-8.7c33.75,57.46,58.89,58.33,58.89,58.33,52.33,67.26,77.11,13.21,77.11,13.21-29.38-3.35-50.2-22.94-50.2-22.94" style="fill:#f74c00; stroke-width:0px;"/></g></g></svg>
