<?xml version="1.0" encoding="UTF-8"?><svg id="Layer_1" xmlns="http://www.w3.org/2000/svg" width="680.62" height="174.95" viewBox="0 0 680.62 174.95"><defs><style>.cls-1{fill:#ffe6d6;}.cls-1,.cls-2,.cls-3,.cls-4,.cls-5,.cls-6,.cls-7{stroke-width:0px;}.cls-2{fill:#000;}.cls-3{fill:#ffa700;}.cls-4{fill:#f74c00;}.cls-5{fill:#e69601;}.cls-6{fill:#a52b00;}.cls-7{fill:#fff;}</style></defs><rect class="cls-3" x="174.95" width="505.67" height="174.95"/><path id="path1" class="cls-1" d="M205.95,111.55h5.52v-49.7h-5.52v-18.11h50.7c9.5,0,16.75,1.95,21.76,5.85,5.01,3.9,7.51,10.23,7.51,19,.11,4.45-.91,8.87-2.98,12.81-1.82,3.46-4.85,6.13-8.5,7.51l.11,1.1c7.07,1.1,10.6,5.45,10.6,13.03v8.5h5.19v18.11h-35.01v-25.95c0-2.87-.42-5.04-1.27-6.52-.87-1.49-2.3-2.57-3.98-2.98-2.51-.59-5.09-.85-7.68-.77v18.11h7.29v18.11h-43.74v-18.11h0ZM248.37,79.97c2.13,0,3.74-.57,4.81-1.71s1.6-2.93,1.6-5.36v-3.98c0-2.43-.53-4.21-1.6-5.36s-2.67-1.71-4.81-1.71h-5.96v18.11h5.96ZM366.77,111.55v18.11h-30.26v-8.62c-5.3,6.77-11.93,10.16-19.88,10.16-6.11,0-10.69-1.91-13.75-5.74-3.06-3.83-4.58-9.09-4.58-15.79v-23.3h-4.86v-18.11h30.26v36.23c0,2.43.53,4.21,1.6,5.36,1.07,1.14,2.67,1.71,4.81,1.71,2.13,0,3.74-.57,4.81-1.71s1.6-2.93,1.6-5.36v-18.11h-5.96v-18.11h31.37v43.3h4.86ZM396.7,131.21c-9.13.02-18.2-1.47-26.84-4.42v-16.35h17.89v1.1c0,3.53,2.25,5.3,6.74,5.3,3.98,0,5.96-1.36,5.96-4.09.07-1.33-.58-2.6-1.71-3.31-1.14-.73-3.15-1.36-6.02-1.88l-5.52-.99c-11.56-2.06-17.34-8.61-17.34-19.66,0-6.41,2.43-11.38,7.29-14.91,4.86-3.53,11.41-5.3,19.66-5.3,9.2,0,16.97,1.55,23.3,4.64v15.35h-16.79v-1.1c.08-1.3-.48-2.55-1.49-3.37-1.29-.86-2.82-1.27-4.36-1.16-3.68,0-5.52,1.18-5.52,3.53-.05,1.17.55,2.27,1.55,2.87,1.77.92,3.67,1.56,5.63,1.88l6.29,1.21c6.55,1.25,11.23,3.57,14.03,6.96s4.2,7.73,4.2,13.03c0,6.7-2.34,11.82-7.01,15.35-4.68,3.53-11.32,5.3-19.94,5.3h0ZM454.46,131.21c-7.81,0-13.68-1.9-17.62-5.69-3.94-3.79-5.91-10.18-5.91-19.16v-19.99h-4.86v-18.11c2.8,0,4.89-.72,6.29-2.15,1.46-1.61,2.22-3.74,2.1-5.91v-4.97h23.42v13.03h14.91v18.11h-14.91v18.11c0,2.43.53,4.21,1.6,5.36,1.07,1.14,2.67,1.71,4.81,1.71,3.08-.03,6.15-.36,9.17-1v17.34c-2.71.99-5.5,1.75-8.34,2.26-3.51.7-7.08,1.05-10.66,1.05h0ZM540.84,43.74h36.23v18.11h-5.52v67.82h-31.04l-32.36-49.81v31.7h5.3v18.11h-36.23v-18.12h5.52v-49.7h-5.52v-18.11h39.87l29.05,44.29v-26.18h-5.3v-18.11s0,0,0,0ZM581.26,129.67v-18.11h5.52v-49.7h-5.52v-18.11h46.61v18.11h-10.16v49.7h9.94v-10.16h21.98v28.27h-68.37Z"/><rect class="cls-3" y="0" width="174.95" height="174.95"/><polygon class="cls-5" points="174.95 174.95 174.95 0 0 0 174.95 174.95"/><g id="Layer-1"><g id="g2"><path id="path1-5" class="cls-6" d="M87.17,81.68c-13.83,0-26.4,1.67-35.71,4.39v23.22c9.31,2.72,21.88,4.39,35.71,4.39,15.84,0,30.01-2.18,39.53-5.63v-20.73c-9.52-3.44-23.7-5.63-39.53-5.63"/></g><g id="g3"><path id="path2-3" class="cls-6" d="M140.97,100.55l-1.62-3.37c0-.13.01-.26.01-.39,0-3.82-3.96-7.34-10.62-10.16v20.32c3.11-1.31,5.63-2.78,7.44-4.36-.53,2.14-2.35,6.47-3.79,9.52-2.38,4.36-3.24,8.15-3.13,8.34.07.12.88-1.14,2.08-3.17,2.79-3.98,8.06-11.58,9.12-13.51,1.2-2.19.52-3.21.52-3.21"/></g><g id="g4"><path id="path3" class="cls-6" d="M36.02,97.02c0,.74.15,1.46.43,2.17l-.97,1.73s-.78,1.01.59,3.15c1.21,1.88,7.26,9.25,10.46,13.11,1.37,1.98,2.3,3.2,2.38,3.08.13-.19-.85-3.9-3.58-8.14-1.27-2.28-2.79-5.29-3.7-7.52,2.54,1.62,5.87,3.08,9.83,4.34v-23.85c-9.53,3.04-15.45,7.26-15.45,11.93"/></g><g id="g5"><path id="path4" class="cls-4" d="M150.39,100.53l-10.66-7.88c-.1-.35-.2-.7-.3-1.05l3.5-5.09c.36-.52.43-1.19.2-1.78-.23-.59-.74-1.01-1.34-1.11l-5.92-1.01c-.23-.47-.47-.93-.71-1.39l2.49-5.71c.26-.58.2-1.26-.14-1.79s-.91-.84-1.52-.82l-6.01.22c-.31-.41-.63-.81-.95-1.2l1.38-6.12c.14-.62-.04-1.27-.47-1.72-.43-.45-1.05-.64-1.65-.49l-5.85,1.44c-.38-.34-.77-.67-1.15-.99l.21-6.28c.02-.64-.27-1.24-.78-1.59-.51-.36-1.15-.41-1.71-.14l-5.46,2.6c-.44-.25-.88-.5-1.33-.75l-.96-6.19c-.1-.63-.5-1.16-1.06-1.4-.56-.24-1.21-.17-1.7.21l-4.87,3.66c-.48-.16-.96-.31-1.45-.46l-2.1-5.87c-.21-.6-.71-1.04-1.3-1.16s-1.21.08-1.63.55l-4.1,4.6c-.49-.06-.99-.11-1.49-.15l-3.16-5.35c-.32-.54-.89-.87-1.5-.87s-1.18.33-1.49.87l-3.16,5.35c-.5.04-1,.09-1.49.15l-4.1-4.6c-.42-.46-1.03-.67-1.63-.55-.6.12-1.09.56-1.3,1.16l-2.1,5.87c-.49.15-.97.3-1.45.46l-4.87-3.66c-.49-.37-1.14-.45-1.7-.21-.56.24-.97.78-1.06,1.4l-.97,6.19c-.45.24-.89.49-1.33.75l-5.46-2.6c-.55-.27-1.2-.21-1.71.14-.51.35-.8.96-.78,1.59l.21,6.28c-.39.33-.77.66-1.15.99l-5.85-1.44c-.59-.14-1.22.04-1.65.49-.43.45-.61,1.1-.47,1.72l1.38,6.12c-.32.4-.64.8-.95,1.2l-6.01-.22c-.61-.02-1.19.29-1.52.82-.34.53-.39,1.2-.14,1.79l2.49,5.71c-.24.46-.48.92-.71,1.39l-5.92,1.01c-.6.1-1.11.52-1.34,1.11s-.16,1.26.2,1.78l3.5,5.09c-.03.09-.05.18-.08.27l-9.9,10.55s-1.52,1.19.69,4c1.95,2.47,11.95,12.27,17.23,17.41,2.23,2.61,3.76,4.22,3.92,4.08.25-.22-1.07-4.97-5.47-10.53-3.39-4.99-7.78-12.67-6.75-13.56,0,0,1.17-1.49,3.53-2.57.09.07-.09-.07,0,0,0,0,49.66,22.97,95.72.39,5.26-.95,8.45,1.88,8.45,1.88,1.1.64-1.75,8.53-4.09,13.76-3.18,5.93-3.65,10.57-3.38,10.73.17.1,1.33-1.67,2.98-4.48,4.07-5.69,11.77-16.55,13.19-19.18,1.6-2.99,0-3.83,0-3.83"/></g><g id="g6"><path id="path5" class="cls-2" d="M70.4,115.27c-.19-.16-.29-.26-.29-.26l16.27-1.34c-13.27-17.55-23.9-3.57-25.03-2.01v3.6h9.05Z"/></g><g id="g7"><path id="path6" class="cls-2" d="M104.27,115.08c.19-.16.29-.26.29-.26l-15.63-1.15c13.28-18.27,23.27-3.76,24.4-2.2v3.6h-9.05Z"/></g><g id="g8"><path id="path7" class="cls-4" d="M129.25,97.66s-1.78,7.1-12.83,14.56l-3.1.73s-10.03-18.34-24.24,2.33c0,0,4.43-2.58,16.3.56,0,0-5.46,8.38-16.46,8.12,0,0,10.54,12.68,26.58-5.64,0,0,16.96-6.58,18.33-20.67h-4.58,0Z"/></g><g id="g9"><path id="path8" class="cls-2" d="M96.31,88.56s4.96-5.45,9.93,0c0,0,3.9,7.27,0,10.9,0,0-6.38,5.09-9.93,0,0,0-4.25-4,0-10.9"/></g><g id="g10"><path id="path9" class="cls-7" d="M102.05,90.58c0,2.12-1.25,3.84-2.79,3.84s-2.79-1.72-2.79-3.84,1.25-3.84,2.79-3.84,2.79,1.72,2.79,3.84"/></g><g id="g11"><path id="path10" class="cls-2" d="M74.16,87.07s8.51-3.78,10.84,4.66c0,0,2.43,9.83-6.99,10.39,0,0-12.02-2.32-3.84-15.05"/></g><g id="g12"><path id="path11" class="cls-7" d="M78.44,90.72c0,2.19-1.29,3.96-2.87,3.96s-2.87-1.77-2.87-3.96,1.29-3.96,2.87-3.96,2.87,1.77,2.87,3.96"/></g><g id="g13"><path id="path12" class="cls-4" d="M69.38,116.6c10.48-1.32,16.54-1.45,16.54-1.45-14.02-18.55-25.4-1.76-25.4-1.76-2.85-1.02-5.76-4.99-7.93-8.65l-8.7-2.58c10.03,17.07,17.49,17.33,17.49,17.33,15.54,19.98,22.91,3.92,22.91,3.92-8.73-.99-14.91-6.81-14.91-6.81"/></g></g></svg>