<?xml version="1.0" encoding="UTF-8" standalone="no"?>
<svg
   width="200"
   height="85"
   version="1.1"
   viewBox="0 0 200 85.5"
   id="svg1"
   sodipodi:docname="corrode.svg"
   inkscape:version="1.3 (0e150ed, 2023-07-21)"
   xmlns:inkscape="http://www.inkscape.org/namespaces/inkscape"
   xmlns:sodipodi="http://sodipodi.sourceforge.net/DTD/sodipodi-0.dtd"
   xmlns="http://www.w3.org/2000/svg"
   xmlns:svg="http://www.w3.org/2000/svg">
  <sodipodi:namedview
     id="namedview1"
     pagecolor="#ffffff"
     bordercolor="#666666"
     borderopacity="1.0"
     inkscape:showpageshadow="2"
     inkscape:pageopacity="0.0"
     inkscape:pagecheckerboard="0"
     inkscape:deskcolor="#d1d1d1"
     inkscape:zoom="2"
     inkscape:cx="24.75"
     inkscape:cy="41"
     inkscape:window-width="1920"
     inkscape:window-height="1027"
     inkscape:window-x="0"
     inkscape:window-y="25"
     inkscape:window-maximized="1"
     inkscape:current-layer="svg1" />
  <defs
     id="defs1" />
  <path
     id="path33"
     d="m 165.19179,18.534168 -6.59914,0.02947 V 39.16458 c -8.63447,-5.485871 -23.28068,-1.166929 -23.28068,12.479227 0,20.182155 30.3349,18.865341 29.87982,-0.0098 z M 43.092992,36.698989 c -8.148541,0 -14.960536,5.715541 -14.960536,14.789614 0,8.598977 6.367855,14.801402 14.960536,14.801402 8.463802,0 14.919278,-6.200198 14.919278,-14.789614 0,-8.79142 -6.590778,-14.801402 -14.919278,-14.801402 z m 72.500148,0 c -6.7841,0 -14.6137,4.159982 -14.97036,14.789614 0,8.748379 6.55626,14.801402 14.97036,14.801402 8.47427,0 14.9291,-6.212002 14.9291,-14.789614 0,-8.870429 -6.69779,-14.801402 -14.9291,-14.801402 z m -41.054537,0.002 c -6.018809,0.03198 -11.876576,4.563229 -11.707135,11.738568 V 66.29004 l 6.683617,-0.02161 -0.249506,-15.927126 c 0,-7.276695 5.41419,-7.840424 8.310317,-7.390877 l 2.89977,-4.656135 C 78.62868,37.201293 76.576061,36.690128 74.538603,36.700954 Z m 17.917279,0 c -6.018809,0.03198 -11.876575,4.563229 -11.707134,11.738568 V 66.29004 l 6.683616,-0.02161 -0.249506,-15.927126 c 0,-7.276695 5.41419,-7.840424 8.310318,-7.390877 l 2.89977,-4.656135 C 96.545961,37.201293 94.49334,36.690128 92.455882,36.700954 Z m -74.93627,0.002 C 10.15807,36.756439 3.1425666,42.22355 3.1425666,51.647808 c 0,14.417391 15.0271064,17.221311 22.8209564,12.589246 -1.160956,-1.518508 -2.078424,-3.19686 -2.891912,-4.919393 -5.26074,2.64851 -13.320083,0.717675 -13.320083,-7.870244 0,-8.527476 8.048497,-10.398235 13.210064,-7.83881 0.520623,-1.397496 2.136498,-4.165712 3.070692,-5.041199 -2.279324,-1.242227 -4.834852,-1.891123 -8.512672,-1.864419 z m 166.726968,0.125735 c -6.92193,0.1552 -14.11379,5.181071 -14.11379,14.799438 0,14.198513 14.81379,17.353922 22.83078,12.589246 l -2.88013,-4.929217 c -5.13572,2.543952 -11.71301,0.699254 -13.0411,-5.210156 l 19.70115,-2.829044 c 1.07777,-9.860167 -5.57498,-14.575467 -12.49691,-14.420267 z m 0.99802,5.736673 c 2.79728,-0.08611 5.25505,1.464642 6.56878,4.799576 l -14.4901,1.994059 c 0.67838,-4.10752 4.32482,-6.68292 7.92132,-6.793635 z m -141.652596,0.02358 c 2.716113,0 8.310317,1.410903 8.310317,8.98025 0,5.313043 -3.07894,8.919348 -8.310317,8.919348 -5.17206,0 -8.32014,-3.525493 -8.32014,-8.919348 0,-8.53505 6.884767,-8.98025 8.32014,-8.98025 z m 72.500146,0 c 2.71612,0 8.31032,1.410903 8.31032,8.98025 0,5.294651 -3.05686,8.919348 -8.31032,8.919348 -5.24178,0 -8.32014,-3.628496 -8.32014,-8.919348 0,-8.53505 6.88476,-8.98025 8.32014,-8.98025 z m 34.50452,0.02947 c 4.15748,0.03414 8.31621,3.11056 8.31621,9.125632 0,12.023983 -16.63046,12.050312 -16.63046,0 0,-6.151642 4.15675,-9.159775 8.31425,-9.125632 z"
     sodipodi:nodetypes="cccsccsssssscssssccccccssscccccsssscsccccssccccsscsccssssssssssssss" />
  <path
     d="m 2377.2894,-712.86716 h 6.52 c 0,-12.10523 -1.2263,-24.51213 8.22,-21.981 l 3.6,-5.43 c -20.7761,-6.38111 -18.34,15.49252 -18.34,27.411 z"
     id="path9" />
  <path
     d="m 2394.8752,-712.86716 h 6.52 c 0,-12.10523 -1.2263,-24.51213 8.22,-21.981 l 3.6,-5.43 c -20.7761,-6.38111 -18.34,15.49252 -18.34,27.411 z"
     id="path13" />
  <path
     d="m 2450.4355,-724.87138 h 6.52 c 0,-12.10523 -1.2263,-24.51213 8.22,-21.981 l 3.6,-5.43 c -20.7761,-6.38111 -18.34,15.49252 -18.34,27.411 z"
     id="path15" />
</svg>
