<svg width="110" height="40" viewBox="0 0 110 40" fill="none" xmlns="http://www.w3.org/2000/svg"><rect y="30.002" width="9.99999" height="10" fill="#1B1B1B"></rect><rect x="10" y="20" width="20" height="10" fill="#1B1B1B"></rect><path d="M9.84374 0H30V10L9.99999 20H0V10L9.84374 0Z" fill="#1B1B1B"></path><path id="flox-logo-f" class="flox-logo_flox-logo-f__OxHjs" d="M42.1241 10.0018H53.8211V13.1483H43.6758V18.7943H53.2329V21.9408H43.6758V29.9982H40V12.1105L42.1241 10.0018Z" fill="#1B1B1B"></path><path id="flox-logo-l" class="flox-logo_flox-logo-l__Tg3HU" d="M56.9582 10.0018H60.634V26.8517H69.6912V29.9982H59.1401L56.9582 27.8895V10.0018Z" fill="#1B1B1B"></path><path id="flox-logo-o" class="flox-logo_flox-logo-o__B82Vw" d="M80.2105 30.4687C78.2892 30.4687 76.5445 30.0178 74.9761 29.116C73.4274 28.2142 72.2021 26.9694 71.3003 25.3814C70.3985 23.7935 69.9476 21.9996 69.9476 20C69.9476 18.0592 70.3887 16.2948 71.2709 14.7068C72.1531 13.0993 73.3685 11.8348 74.9173 10.9134C76.4856 9.99195 78.25 9.53125 80.2105 9.53125C82.1317 9.53125 83.8765 9.98215 85.4448 10.884C87.0132 11.7858 88.2483 13.0306 89.1501 14.6186C90.0519 16.2065 90.5028 18.0003 90.5028 20C90.5028 21.9408 90.0617 23.715 89.1795 25.3226C88.2973 26.9106 87.072 28.1652 85.5036 29.0866C83.9353 30.008 82.1709 30.4687 80.2105 30.4687ZM80.2105 27.1164C81.4652 27.1164 82.5924 26.8125 83.5922 26.2048C84.592 25.5971 85.3664 24.7541 85.9153 23.6758C86.4839 22.5976 86.7681 21.3723 86.7681 20C86.7681 18.6277 86.4839 17.4024 85.9153 16.3242C85.3664 15.2459 84.592 14.4029 83.5922 13.7952C82.5924 13.1875 81.4652 12.8836 80.2105 12.8836C78.9558 12.8836 77.8285 13.1875 76.8287 13.7952C75.8289 14.4029 75.0447 15.2459 74.4762 16.3242C73.9273 17.4024 73.6528 18.6277 73.6528 20C73.6528 21.3723 73.9273 22.5976 74.4762 23.6758C75.0447 24.7541 75.8289 25.5971 76.8287 26.2048C77.8285 26.8125 78.9558 27.1164 80.2105 27.1164Z" fill="#1B1B1B"></path><path id="flox-logo-x" class="flox-logo_flox-logo-x__Kq21k" fill-rule="evenodd" clip-rule="evenodd" d="M108.81 29.5312L102.146 19.8548L102.147 19.8533L100.134 16.9372L100.13 16.943L95.0152 9.53125H90.8066L97.7332 19.6195L90.8066 29.5312H95.0444L99.7498 22.5607L104.543 29.5312H108.81ZM101.935 14.2662L103.974 17.2196L109.307 9.53125H105.127L101.935 14.2662Z" fill="#1B1B1B"></path></svg>