<svg xmlns:xlink="http://www.w3.org/1999/xlink" xmlns="http://www.w3.org/2000/svg" width="300" height="75" viewBox="0 0 300 75" fill="none" data-google-analytics-opt-out="">
<path fill-rule="evenodd" clip-rule="evenodd" d="M46.1436 72.9902C51.1748 71.7324 59.6656 66.7262 61.055 64.3822L61.3657 42.4968C61.3657 42.4968 63.9106 39.4508 62.9791 38.5181C62.0483 37.5854 54.7866 34.3523 54.7866 34.3523C54.7866 34.3523 50.9383 37.0569 50.0692 37.1811C49.2001 37.3052 35.3588 37.4294 35.1416 37.4294C34.9245 37.4294 36.1 41.7206 36.7207 42.1555C37.3415 42.591 50.4997 42.2491 50.4997 42.2491L50.4261 57.1991C50.4261 63.8662 50.7418 68.7346 46.1436 72.9902Z" fill="#0A2540"/>
<path fill-rule="evenodd" clip-rule="evenodd" d="M58.8218 18.9328L58.946 10.4146C58.946 10.4146 51.3112 0.280493 33.7464 0.901905C14.5375 1.66682 1.0923 14.3209 0.08719 34.6809C-0.544828 47.4922 2.22407 58.3775 9.54126 65.7278C15.5607 71.7747 24.1831 75.3054 33.6621 74.9173C42.8748 74.5392 47.7562 68.8542 48.4874 66.3641C44.384 68.3195 39.4676 69.571 34.5356 69.4369C16.1697 68.9384 10.4565 50.7552 10.9619 36.4359C11.4891 21.4865 19.1694 5.18004 36.6313 5.93996C44.4033 6.27874 51.2276 10.5612 55.4702 18.9328H58.8218Z" fill="#0A2540"/>
<path fill-rule="evenodd" clip-rule="evenodd" d="M188.048 16.5702V8.98477C183.667 3.3303 175.776 0.72923 169.431 0.393568C157.986 -0.210998 146.711 4.95121 145.67 17.8549C144.955 26.7112 150.421 32.7918 159.559 37.1504C169.986 42.1242 179.545 46.2901 181.779 52.259C184.014 58.2279 179.669 68.8599 168.807 69.9792C159.89 70.93 149.401 66.3593 148.697 57.2952L145.532 57.0462L144.973 65.2531C144.973 65.2531 151.446 73.815 164.915 74.4994C178.384 75.1832 189.476 68.5492 190.966 59.4714C192.455 50.3935 190.903 41.378 176.441 33.9174C168.778 29.9637 153.677 25.2581 154.637 14.7384C155.413 6.21961 164.629 3.56801 171.978 4.66609C178.719 5.67432 184.138 11.4249 184.821 16.695L188.048 16.5702Z" fill="#0A2540"/>
<path fill-rule="evenodd" clip-rule="evenodd" d="M203.69 65.6887C203.69 65.6887 204.155 7.21297 204.155 6.21846C204.155 5.22333 203.193 3.32727 203.193 3.32727L205.49 0.715597C205.49 0.715597 214.366 5.19276 214.552 5.50346C214.738 5.81417 214.49 6.31142 214.366 7.24416C214.241 8.1769 213.745 23.1607 213.993 30.8085C214.241 38.4564 214.117 71.7818 214.117 71.7818C214.117 71.7818 210.89 74.5794 210.145 74.7042C209.4 74.8283 209.027 75.0149 208.593 74.6424C208.159 74.2687 203.131 68.7352 203.131 68.7352C203.131 68.7352 203.845 66.0618 203.69 65.6887Z" fill="#0A2540"/>
<path fill-rule="evenodd" clip-rule="evenodd" d="M229.201 73.9582L229.263 5.81442L227.711 3.63823C227.711 3.63823 227.463 1.46204 228.022 1.46204C228.58 1.46204 241.243 2.45655 241.243 2.45655L242.16 6.59617L266.226 54.9471L264.973 47.4821L287.38 4.51856C287.38 4.51856 286.707 3.06299 286.397 2.81405C286.086 2.56511 287.852 -0.339182 288.349 0.0332908C288.737 0.324656 296.075 3.55025 298.976 4.93408C300.57 5.694 299.988 5.66531 299.342 6.90127C299.061 7.43907 298.925 8.15657 298.78 8.86096C298.407 10.6641 299.083 70.2279 299.083 70.2279C299.083 70.2279 295.149 74.7356 294.155 74.5491C293.162 74.3619 287.829 69.1966 287.394 68.3886C287.394 68.3886 288.322 65.2528 288.319 63.519L288.23 14.0213L262.47 63.9476C262.47 63.9476 260.546 64.01 259.925 63.8235C259.305 63.6369 234.456 13.9695 234.456 13.9695L234.539 71.7203C234.539 71.7203 231.436 74.0824 229.201 73.9582Z" fill="#0A2540"/>
<path fill-rule="evenodd" clip-rule="evenodd" d="M125.036 25.6709C125.719 21.4925 125.951 14.9178 123.4 9.92094C102.077 -4.6629 76.6357 8.62258 71.6562 28.7461C74.0196 23.7736 81.2301 17.6349 89.8363 14.6707C100.555 10.9785 115.414 12.5039 125.036 25.6709Z" fill="#15E5E2"/>
<path fill-rule="evenodd" clip-rule="evenodd" d="M104.322 60.9713C107.593 63.661 113.161 67.1636 118.763 67.4668C142.084 56.3531 143.373 27.6808 128.472 13.268C131.585 17.8088 133.272 27.1268 131.513 36.0574C129.322 47.1811 120.541 59.2643 104.322 60.9713Z" fill="#6688FF"/>
<path fill-rule="evenodd" clip-rule="evenodd" d="M83.2311 26.1597C79.283 27.6895 73.4988 30.8228 70.4847 35.5551C68.7252 61.3281 93.0751 76.5215 112.945 70.6106C107.461 71.0948 98.5143 67.9921 91.5964 62.0775C82.979 54.7097 76.7605 41.1285 83.2311 26.1597Z" fill="#9966FF"/>
</svg>