<svg xmlns="http://www.w3.org/2000/svg" width="235.277" height="83.92" viewBox="0 0 235.277 83.92">
  <g id="Group_3191" data-name="Group 3191" transform="translate(-7440 18520)">
    <path id="path28" d="M76.5-12.667l-.173.227L57.837-35.4a10.582,10.582,0,0,1,0-13.16l5.934-7.359.173.186C67.8-51.6,71.451-47.347,74.73-43.08l.747.987c.253.319.493.652.733,1,6.147,8.786,6.267,20.212.294,28.425Zm-2.4,2.8a.369.369,0,0,1-.254.107.362.362,0,0,1-.2-.068l-.013-.013-1.16-.934-3.92-3.159L50.477-28.494A13.582,13.582,0,0,0,42-31.454a13.583,13.583,0,0,0-8.48,2.96L15.358-13.866l-4.707,3.8-.306.24a.338.338,0,0,1-.213.068.322.322,0,0,1-.24-.094l-.014-.013a.311.311,0,0,1-.026-.427v-.026l.254-.294,3.066-3.827.734-.893,14.613-18.16a13.591,13.591,0,0,0,0-16.96L12.877-69.88,10.037-73.4l-.173-.227-.013-.013a.364.364,0,0,1,.04-.453.329.329,0,0,1,.453-.015l.227.175,3.519,2.84L33.518-55.467A13.518,13.518,0,0,0,42-52.494a13.517,13.517,0,0,0,8.48-2.973L66.944-68.72l6.44-5.2.253-.188a.347.347,0,0,1,.467.015h.013a.362.362,0,0,1,.027.466c0,.013,0,.013-.013.013l-.187.254-5.2,6.44L55.491-50.453a13.571,13.571,0,0,0,0,16.947L70.037-15.413l3.16,3.919.934,1.16a.348.348,0,0,1-.027.468ZM71.317-7.48A23.131,23.131,0,0,1,57.544-3.054a25.442,25.442,0,0,1-14.68-4.72c-.333-.227-.667-.466-.987-.72L40.9-9.24c-4.307-3.32-8.573-6.946-12.667-10.786l-.187-.173,7.36-5.934A10.506,10.506,0,0,1,42-28.441a10.511,10.511,0,0,1,6.587,2.307L71.544-7.64ZM39.064-6.454a25.578,25.578,0,0,1-12.653,3.4A23.09,23.09,0,0,1,12.678-7.467l-.227-.173L25.664-18.293l.133.133c4.266,4.027,8.746,7.841,13.293,11.347l.254.186Zm-31.4-5.972-.16-.227C2.011-20.16,1.611-30.52,6.478-39.026l.173-.293.214.28c3.507,4.546,7.307,9.013,11.32,13.266l.133.134ZM7.5-71.293l.16-.24L26.158-48.56a10.545,10.545,0,0,1,0,13.173l-5.933,7.36-.173-.187c-3.813-4.079-7.454-8.333-10.8-12.667l-.733-.972c-.254-.32-.493-.641-.733-1C1.611-51.639,1.5-63.067,7.5-71.293Zm5.187-5.187a23.112,23.112,0,0,1,13.747-4.427,25.506,25.506,0,0,1,14.693,4.733c.333.227.653.467.987.72l.973.747C47.344-71.426,51.6-67.8,55.757-63.92l.187.173-7.36,5.933A10.581,10.581,0,0,1,42-55.52a10.576,10.576,0,0,1-6.586-2.293L12.451-76.319Zm32.253-1a25.267,25.267,0,0,1,12.614-3.414A23.287,23.287,0,0,1,71.317-76.48l.227.16L58.317-65.667l-.133-.133c-4.307-4.053-8.773-7.867-13.267-11.32l-.267-.2Zm31.4,5.96.16.227a24.242,24.242,0,0,1,1.014,26.36l-.187.28-.187-.267c-3.467-4.493-7.28-8.946-11.32-13.241l-.133-.133Zm2.973,29.667-.066-.107.066-.12a28.6,28.6,0,0,0,3.467-7.494,27.692,27.692,0,0,0,1.16-8.959,26.288,26.288,0,0,0-6.48-16.4c-.147-.147-.28-.307-.413-.467-.227-.253-.467-.507-.72-.773l-.173-.146c-.387-.4-.8-.773-1.2-1.121A26.21,26.21,0,0,0,57.584-83.92,28.408,28.408,0,0,0,42.1-79.293l-.12.066-.12-.066A28.519,28.519,0,0,0,26.4-83.92,26.2,26.2,0,0,0,9.064-77.453c-.414.346-.826.733-1.227,1.134l-.187.186c-.4.387-.773.8-1.12,1.2-7.973,9.026-8.706,22.226-1.866,32.84l.08.12-.08.12C-2.163-31.24-1.429-18.054,6.518-9.027c.359.413.733.812,1.106,1.186l.227.227c.387.386.786.76,1.186,1.107A26.262,26.262,0,0,0,26.424,0,28.589,28.589,0,0,0,41.877-4.64L42-4.72l.12.081A28.534,28.534,0,0,0,57.558-.014,26.224,26.224,0,0,0,74.944-6.507c.414-.359.813-.733,1.214-1.12l.186-.2c.4-.372.773-.8,1.133-1.186,7.934-9.04,8.68-22.226,1.84-32.839" transform="translate(7440 -18436.08)" fill="#1c2649"/>
    <path id="path30" d="M156.584-60.92H145.09l-8.373,11.44L128.6-60.92H116.984l14.04,19-14.04,18.947h11.68l8.053-11,8.013,11h11.64L142.557-41.68,156.584-60.92" transform="translate(7440 -18436.08)" fill="#1c2649"/>
    <path id="path32" d="M183.517-33.494a8.783,8.783,0,0,1-7.067,3.04,8.639,8.639,0,0,1-7.067-3.04c-1.707-2-2.547-4.826-2.547-8.426s.853-6.4,2.56-8.414a8.668,8.668,0,0,1,7.053-3.013,8.752,8.752,0,0,1,7.08,3q2.54,3,2.547,8.427c0,3.6-.853,6.426-2.56,8.426Zm7.613-22.72q-5.48-5.379-14.613-5.372-9.22,0-14.707,5.372T156.33-41.92q0,8.9,5.48,14.239t14.707,5.346q9.22,0,14.653-5.333T196.6-41.92q0-8.941-5.467-14.294" transform="translate(7440 -18436.08)" fill="#1c2649"/>
    <path id="path34" d="M231.61-57.693C229.183-59.84,225.1-60.92,219.4-60.92h-18.84v37.947h10.027V-52.586h8.053c2.653,0,4.413.426,5.293,1.267s1.32,2.693,1.32,5.519v22.827h10.027V-47.026q0-7.461-3.667-10.667" transform="translate(7440 -18436.08)" fill="#1c2649"/>
    <path id="path36" d="M104.172-60.922V-29.27c.042,2.156,1.547,6.031,7.561,6.29h2.955V-60.922H104.172" transform="translate(7440 -18436.08)" fill="#1c2649"/>
  </g>
</svg>
